<?xml version="1.0" standalone="no"?>
<!DOCTYPE svg PUBLIC "-//W3C//DTD SVG 20010904//EN"
 "http://www.w3.org/TR/2001/REC-SVG-20010904/DTD/svg10.dtd">
<svg version="1.0" xmlns="http://www.w3.org/2000/svg"
 width="260.000000pt" height="260.000000pt" viewBox="0 0 260.000000 260.000000"
 preserveAspectRatio="xMidYMid meet">
<metadata>
Created by potrace 1.11, written by Peter Selinger 2001-2013
</metadata>
<g transform="translate(0.000000,260.000000) scale(0.100000,-0.100000)"
fill="#000000" stroke="none">
<path d="M1818 2332 c-117 -69 -435 -385 -693 -689 l-110 -129 -170 0 c-139 1
-177 -2 -206 -16 -40 -19 -99 -65 -99 -78 0 -4 78 -11 173 -16 l172 -9 -2 -32
c-2 -18 -52 -128 -111 -245 -232 -457 -303 -689 -243 -783 38 -59 58 -77 77
-73 12 2 26 -7 39 -27 32 -46 46 -38 71 40 77 239 116 358 138 420 14 38 23
71 21 74 -2 2 0 11 5 21 7 13 4 22 -10 35 -21 19 -20 34 5 90 7 17 23 53 34
81 11 28 34 82 51 120 18 38 43 94 56 124 14 30 32 72 42 93 l17 39 110 -7
c113 -7 266 -22 270 -27 2 -2 -3 -48 -11 -103 -26 -193 -28 -247 -10 -328 26
-116 91 -187 170 -187 15 0 29 -6 32 -14 12 -30 112 -46 159 -26 11 5 16 9 10
10 -87 13 -96 27 -38 57 104 55 182 128 264 248 58 86 71 117 55 133 -11 11
-22 1 -70 -68 -178 -254 -350 -316 -376 -135 -8 58 4 273 17 305 3 8 12 44 19
80 23 117 35 165 43 180 5 9 12 35 16 58 4 23 10 44 15 47 5 3 11 24 15 47 10
55 27 73 44 46 12 -19 15 -16 45 43 17 35 38 80 46 99 29 74 102 214 150 288
l50 77 -24 20 c-13 11 -32 25 -42 31 -16 10 -17 13 -5 28 16 19 19 15 -43 55
-63 39 -105 40 -168 3z m-18 -127 c0 -2 -21 -41 -48 -87 -26 -46 -69 -141 -96
-213 -115 -308 -135 -364 -156 -442 -6 -24 -16 -43 -23 -43 -7 1 -59 12 -117
26 -58 14 -129 30 -157 35 -64 13 -70 -1 78 196 172 229 298 368 424 469 72
58 95 72 95 59z"/>
</g>
</svg>
